<svg width="123" height="122" viewBox="0 0 123 122" fill="none" xmlns="http://www.w3.org/2000/svg">
<circle cx="61.625" cy="61" r="59" fill="#1E5AA3" stroke="#69C9FA" stroke-width="4"/>
<path d="M61.1245 94.5035C42.375 94.5035 27.1211 79.2496 27.1211 60.5C27.1211 41.7505 42.375 26.4966 61.1245 26.4966C79.8741 26.4966 95.128 41.7505 95.128 60.5C95.128 79.2496 79.8741 94.5035 61.1245 94.5035Z" stroke="#F6F6F6" stroke-width="4" stroke-miterlimit="10"/>
<path d="M61.1237 66.995C57.5486 66.995 54.6289 64.0753 54.6289 60.5002C54.6289 56.9251 57.5486 54.0054 61.1237 54.0054C64.6989 54.0054 67.6185 56.9251 67.6185 60.5002C67.6185 64.0753 64.6989 66.995 61.1237 66.995ZM61.1237 56.647C58.9985 56.647 57.2705 58.375 57.2705 60.5002C57.2705 62.6254 58.9985 64.3534 61.1237 64.3534C63.2489 64.3534 64.9769 62.6254 64.9769 60.5002C64.9769 58.375 63.2489 56.647 61.1237 56.647Z" fill="#F6F6F6"/>
<path d="M80.8466 40.1813L65.8708 57.8583L63.1895 55.3358L79.933 39.3272C80.1713 39.0889 80.5686 39.0889 80.8069 39.3272C81.0452 39.5457 81.0651 39.923 80.8466 40.1813Z" fill="#F6F6F6"/>
<path d="M43.2086 44.094L46.0091 46.3582C46.7837 45.663 47.6179 45.0473 48.4918 44.4713L46.307 41.2339C45.1948 42.1078 44.1619 43.0611 43.2086 44.094ZM40.1697 66.4981L37.7267 67.0145C37.8657 67.5508 38.0246 68.0871 38.2233 68.6035C38.5212 69.4178 38.839 70.1924 39.1965 70.9472L41.282 69.7952C41.0834 69.3383 40.9046 68.8815 40.7258 68.4048C40.5074 67.7891 40.3286 67.1337 40.1697 66.4981ZM40.706 53.8858L38.0644 52.8133C37.6274 54.1242 37.2897 55.4946 37.0911 56.9048L39.7129 57.1432C39.9512 56.0111 40.2889 54.9187 40.706 53.8858ZM78.7017 57.461L85.1568 56.885C84.9581 55.4748 84.6205 54.1043 84.1637 52.7934L78.1257 55.2364C78.364 55.9515 78.5428 56.7062 78.7017 57.461ZM39.3157 62.1086C39.2958 61.4333 39.2958 60.758 39.3355 60.1026L36.8528 59.8841C36.8329 60.4402 36.8329 60.9964 36.8528 61.5525C36.8925 62.4066 36.972 63.2606 37.0911 64.0948L39.4348 63.5983C39.3752 63.1017 39.3355 62.6052 39.3157 62.1086ZM48.7897 39.5655L51.1533 43.0611C52.0471 42.6639 52.9607 42.3461 53.9141 42.0879L52.5834 37.758C51.2725 38.2546 50.0013 38.8504 48.7897 39.5655ZM39.1965 50.0525L42.0367 51.2045C42.5929 50.2511 43.2284 49.3573 43.9236 48.5231L41.3416 46.4377C40.5272 47.5499 39.7923 48.7615 39.1965 50.0525ZM77.8675 68.0672L83.0713 70.9472C83.6671 69.676 84.1637 68.3651 84.541 66.9946L78.5428 65.7235C78.364 66.518 78.1455 67.2926 77.8675 68.0672ZM79.0393 60.4204C79.079 61.2149 79.0592 61.9895 78.9996 62.7641L85.1568 64.075C85.3554 62.7045 85.4348 61.2943 85.3951 59.8643L79.0393 60.4204ZM80.9063 46.3979L75.8813 50.4696C76.2984 51.1052 76.6758 51.7805 77.0134 52.4558L83.0514 50.0128C82.4357 48.7416 81.7207 47.5301 80.9063 46.3979ZM67.9167 43.3789C68.6516 43.7364 69.3666 44.1535 70.0419 44.5905L73.4383 39.5456C72.2267 38.8306 70.9754 38.2149 69.6447 37.7183L67.9167 43.3789ZM62.6136 41.6708C63.4676 41.8098 64.3018 42.0283 65.136 42.2667L66.7846 36.8643C65.434 36.5465 64.0436 36.328 62.6136 36.2485V41.6708ZM55.4435 36.8841L56.8537 41.5119C57.3303 41.4523 57.807 41.4126 58.2837 41.3927C58.7207 41.3729 59.1576 41.3729 59.5946 41.3729V36.2684C58.1844 36.3478 56.7941 36.5465 55.4435 36.8841Z" fill="#F6F6F6"/>
<path d="M51.1772 77.2883C51.3772 77.3843 51.5332 77.5223 51.6452 77.7023C51.7612 77.8823 51.8192 78.0863 51.8192 78.3143C51.8192 78.6543 51.6892 78.9383 51.4292 79.1663C51.1692 79.3943 50.8452 79.5083 50.4572 79.5083H48.5252V75.3083H50.4212C50.6652 75.3083 50.8852 75.3543 51.0812 75.4463C51.2772 75.5383 51.4312 75.6663 51.5432 75.8303C51.6552 75.9943 51.7112 76.1783 51.7112 76.3823C51.7112 76.5663 51.6632 76.7403 51.5672 76.9043C51.4712 77.0643 51.3412 77.1923 51.1772 77.2883ZM50.6132 76.5743C50.6132 76.4663 50.5772 76.3783 50.5052 76.3103C50.4332 76.2423 50.3372 76.2083 50.2172 76.2083H49.6352V76.9403H50.2172C50.2972 76.9403 50.3672 76.9263 50.4272 76.8983C50.4872 76.8663 50.5332 76.8223 50.5652 76.7663C50.5972 76.7103 50.6132 76.6463 50.6132 76.5743ZM50.2652 78.5603C50.3892 78.5603 50.4892 78.5243 50.5652 78.4523C50.6412 78.3803 50.6792 78.2883 50.6792 78.1763C50.6792 78.0643 50.6412 77.9723 50.5652 77.9003C50.4892 77.8283 50.3892 77.7923 50.2652 77.7923H49.6352V78.5603H50.2652ZM54.5274 79.6163C53.8514 79.6163 53.2954 79.4103 52.8594 78.9983C52.4274 78.5823 52.2114 78.0523 52.2114 77.4083C52.2114 76.7643 52.4274 76.2363 52.8594 75.8243C53.2954 75.4083 53.8514 75.2003 54.5274 75.2003C55.1994 75.2003 55.7514 75.4083 56.1834 75.8243C56.6154 76.2363 56.8314 76.7643 56.8314 77.4083C56.8314 78.0523 56.6154 78.5823 56.1834 78.9983C55.7514 79.4103 55.1994 79.6163 54.5274 79.6163ZM53.7294 78.2183C53.9414 78.4303 54.2074 78.5363 54.5274 78.5363C54.8474 78.5363 55.1094 78.4303 55.3134 78.2183C55.5214 78.0063 55.6254 77.7363 55.6254 77.4083C55.6254 77.0803 55.5214 76.8103 55.3134 76.5983C55.1094 76.3863 54.8474 76.2803 54.5274 76.2803C54.2074 76.2803 53.9414 76.3863 53.7294 76.5983C53.5214 76.8103 53.4174 77.0803 53.4174 77.4083C53.4174 77.7363 53.5214 78.0063 53.7294 78.2183ZM59.5196 79.6163C58.8436 79.6163 58.2876 79.4103 57.8516 78.9983C57.4196 78.5823 57.2036 78.0523 57.2036 77.4083C57.2036 76.7643 57.4196 76.2363 57.8516 75.8243C58.2876 75.4083 58.8436 75.2003 59.5196 75.2003C60.1916 75.2003 60.7436 75.4083 61.1756 75.8243C61.6076 76.2363 61.8236 76.7643 61.8236 77.4083C61.8236 78.0523 61.6076 78.5823 61.1756 78.9983C60.7436 79.4103 60.1916 79.6163 59.5196 79.6163ZM58.7216 78.2183C58.9336 78.4303 59.1996 78.5363 59.5196 78.5363C59.8396 78.5363 60.1016 78.4303 60.3056 78.2183C60.5136 78.0063 60.6176 77.7363 60.6176 77.4083C60.6176 77.0803 60.5136 76.8103 60.3056 76.5983C60.1016 76.3863 59.8396 76.2803 59.5196 76.2803C59.1996 76.2803 58.9336 76.3863 58.7216 76.5983C58.5136 76.8103 58.4096 77.0803 58.4096 77.4083C58.4096 77.7363 58.5136 78.0063 58.7216 78.2183ZM63.9058 79.6103C63.3858 79.6103 62.9738 79.4823 62.6698 79.2263C62.3658 78.9663 62.2138 78.6083 62.2138 78.1523H63.4078C63.4078 78.2963 63.4538 78.4063 63.5458 78.4823C63.6418 78.5583 63.7598 78.5963 63.8998 78.5963C64.0278 78.5963 64.1378 78.5643 64.2298 78.5003C64.3258 78.4363 64.3738 78.3503 64.3738 78.2423C64.3738 78.2063 64.3698 78.1763 64.3618 78.1523C64.3538 78.1243 64.3378 78.0983 64.3138 78.0743C64.2938 78.0503 64.2738 78.0303 64.2538 78.0143C64.2338 77.9943 64.2018 77.9763 64.1578 77.9603C64.1178 77.9403 64.0838 77.9263 64.0558 77.9183C64.0278 77.9063 63.9838 77.8923 63.9238 77.8763C63.8678 77.8603 63.8238 77.8483 63.7918 77.8403C63.7638 77.8323 63.7158 77.8203 63.6478 77.8043C63.5278 77.7723 63.4378 77.7483 63.3778 77.7323C63.3178 77.7163 63.2298 77.6883 63.1138 77.6483C62.9978 77.6083 62.9078 77.5703 62.8438 77.5343C62.7798 77.4943 62.7058 77.4403 62.6218 77.3723C62.5378 77.3043 62.4738 77.2323 62.4298 77.1563C62.3858 77.0803 62.3478 76.9863 62.3158 76.8743C62.2838 76.7623 62.2678 76.6403 62.2678 76.5083C62.2678 76.1003 62.4078 75.7823 62.6878 75.5543C62.9718 75.3223 63.3638 75.2063 63.8638 75.2063C64.3638 75.2063 64.7518 75.3283 65.0278 75.5723C65.3078 75.8163 65.4478 76.1523 65.4478 76.5803H64.2898C64.2898 76.4523 64.2478 76.3563 64.1638 76.2923C64.0798 76.2243 63.9758 76.1903 63.8518 76.1903C63.7398 76.1903 63.6438 76.2143 63.5638 76.2623C63.4838 76.3103 63.4438 76.3823 63.4438 76.4783C63.4438 76.5143 63.4518 76.5483 63.4678 76.5803C63.4838 76.6123 63.5098 76.6423 63.5458 76.6703C63.5818 76.6943 63.6158 76.7163 63.6478 76.7363C63.6838 76.7523 63.7338 76.7723 63.7978 76.7963C63.8658 76.8163 63.9198 76.8323 63.9598 76.8443C64.0038 76.8563 64.0698 76.8723 64.1578 76.8923C64.2778 76.9243 64.3698 76.9503 64.4338 76.9703C64.4978 76.9863 64.5878 77.0163 64.7038 77.0603C64.8238 77.1003 64.9158 77.1403 64.9798 77.1803C65.0478 77.2203 65.1258 77.2743 65.2138 77.3423C65.3018 77.4103 65.3678 77.4843 65.4118 77.5643C65.4598 77.6443 65.4998 77.7403 65.5318 77.8523C65.5678 77.9643 65.5858 78.0863 65.5858 78.2183C65.5858 78.6623 65.4318 79.0063 65.1238 79.2503C64.8158 79.4903 64.4098 79.6103 63.9058 79.6103ZM69.2592 75.3083V76.3523H68.1132V79.5083H66.9552V76.3523H65.8152V75.3083H69.2592Z" fill="#F6F6F6"/>
</svg>
