<svg fill="none" height="122" viewBox="0 0 123 122" width="123" xmlns="http://www.w3.org/2000/svg"><circle cx="61.832" cy="61" fill="#1e5aa3" r="59" stroke="#69c9fa" stroke-width="4"/><g fill="#fff"><path d="m61.8321 23c-15.464 0-28.0001 12.6576-28.0001 28.2715 0 5.2217 1.0123 10.6148 3.9171 14.5019l22.4809 30.0828c.7999 1.0703 2.4043 1.0703 3.2041 0l22.4808-30.0828c2.6385-3.5306 3.9171-9.7722 3.9171-14.5019.0001-15.6139-12.536-28.2715-27.9999-28.2715zm0 9.7054c6.5066 0 11.783 5.3276 11.783 11.8973 0 6.5698-5.2764 11.8973-11.783 11.8973-6.5067 0-11.783-5.3275-11.783-11.8973 0-6.5697 5.2763-11.8973 11.783-11.8973z"/><path d="m84.832 79.5c0 4.6944-3.8055 8.5-8.5 8.5-4.6944 0-8.5-3.8056-8.5-8.5s3.8056-8.5 8.5-8.5c4.6945 0 8.5 3.8056 8.5 8.5z" stroke="#1e5aa3" stroke-width="2"/></g></svg>