<svg xmlns="http://www.w3.org/2000/svg" width="80" height="80" viewBox="0 0 80 80" fill="none">
<path d="M40 80C62.0914 80 80 62.0914 80 40C80 17.9086 62.0914 0 40 0C17.9086 0 0 17.9086 0 40C0 62.0914 17.9086 80 40 80Z" fill="#E4E4E4"/>
<path xmlns="http://www.w3.org/2000/svg" d="M3.5,44c0,4.6,11.3,7,22.5,7s22.5-2.4,22.5-7c0-3.9-8.5-6.2-17.5-6.8L39,23.5C44.8,13.5,37.6,1,26,1   C14.4,1,7.2,13.5,13,23.5l7.9,13.7C12,37.8,3.5,40.1,3.5,44z M26,3c10,0,16.3,10.8,11.3,19.5L26.7,40.9c-0.2,0.4-0.5,0.4-0.7,0.4   s-0.5,0-0.7-0.4L14.7,22.5C9.7,13.8,16,3,26,3z M22,39.2l1.6,2.7c0.5,0.9,1.4,1.4,2.4,1.4s1.9-0.5,2.4-1.4l1.6-2.7   c10.7,0.6,16.6,3.2,16.6,4.9c0,2-8,5-20.5,5c-12.5,0-20.5-2.9-20.5-5C5.5,42.4,11.4,39.7,22,39.2z" style="&#10;    fill: #3A3A3A;&#10;    transform: translate(15px, 11px);&#10;    position: relative;&#10;"/>

<path xmlns="http://www.w3.org/2000/svg" d="M32.6,14.3c0-3.6-3-6.6-6.6-6.6s-6.6,3-6.6,6.6s3,6.6,6.6,6.6S32.6,18,32.6,14.3z M21.4,14.3c0-2.5,2.1-4.6,4.6-4.6   c2.5,0,4.6,2.1,4.6,4.6c0,2.5-2.1,4.6-4.6,4.6C23.5,18.9,21.4,16.9,21.4,14.3z" style="&#10;    fill: #3A3A3A;&#10;    transform: translate(15px, 11px);&#10;    position: relative;&#10;"/>

</svg>