<svg width="80" height="80" viewBox="0 0 80 80" fill="none" xmlns="http://www.w3.org/2000/svg">
  <path d="M40 80C62.0914 80 80 62.0914 80 40C80 17.9086 62.0914 0 40 0C17.9086 0 0 17.9086 0 40C0 62.0914 17.9086 80 40 80Z" fill="#E4E4E4" />
  <path fill-rule="evenodd" clip-rule="evenodd" d="M41.2757 28.1939C40.6468 27.8215 40.439 27.01 40.8114 26.3804L43.8852 21.1886C44.2576 20.5596 45.0685 20.3518 45.6981 20.7242C46.327 21.0967 46.5349 21.9082 46.163 22.5371L43.0892 27.7296C42.7162 28.3579 41.9047 28.5664 41.2757 28.1939Z" fill="#FF8A2F" />
  <path fill-rule="evenodd" clip-rule="evenodd" d="M41.2757 28.1939C40.6468 27.8215 40.439 27.01 40.8114 26.3804L43.8852 21.1886C44.2576 20.5596 45.0685 20.3518 45.6981 20.7242C46.327 21.0967 46.5349 21.9082 46.163 22.5371L43.0892 27.7296C42.7162 28.3579 41.9047 28.5664 41.2757 28.1939Z" fill="#313131" />
  <path fill-rule="evenodd" clip-rule="evenodd" d="M38.6747 51.762C39.3103 52.1242 39.5319 52.9316 39.1703 53.5671L36.1848 58.81C35.8232 59.4456 35.0153 59.6672 34.3803 59.3062C33.7448 58.944 33.5231 58.136 33.8848 57.5011L36.8696 52.2576C37.2313 51.6226 38.0392 51.4004 38.6747 51.762Z" fill="#FF8A2F" />
  <path fill-rule="evenodd" clip-rule="evenodd" d="M38.6747 51.762C39.3103 52.1242 39.5319 52.9316 39.1703 53.5671L36.1848 58.81C35.8232 59.4456 35.0153 59.6672 34.3803 59.3062C33.7448 58.944 33.5231 58.136 33.8848 57.5011L36.8696 52.2576C37.2313 51.6226 38.0392 51.4004 38.6747 51.762Z" fill="#313131" />
  <path fill-rule="evenodd" clip-rule="evenodd" d="M51.8183 41.2743C52.1908 40.6454 53.0029 40.437 53.6318 40.81L58.8237 43.8838C59.4526 44.2556 59.6605 45.0672 59.2886 45.6961C58.9156 46.3256 58.1041 46.5335 57.4751 46.161L52.2827 43.0879C51.6543 42.7148 51.4459 41.9033 51.8183 41.2743Z" fill="#FF8A2F" />
  <path fill-rule="evenodd" clip-rule="evenodd" d="M51.8183 41.2743C52.1908 40.6454 53.0029 40.437 53.6318 40.81L58.8237 43.8838C59.4526 44.2556 59.6605 45.0672 59.2886 45.6961C58.9156 46.3256 58.1041 46.5335 57.4751 46.161L52.2827 43.0879C51.6543 42.7148 51.4459 41.9033 51.8183 41.2743Z" fill="#313131" />
  <path fill-rule="evenodd" clip-rule="evenodd" d="M28.2491 38.6721C27.8875 39.3071 27.0796 39.5287 26.4446 39.1671L21.2011 36.1822C20.5656 35.8206 20.3439 35.0127 20.7056 34.3777C21.0672 33.7422 21.8751 33.5205 22.5107 33.8822L27.7542 36.867C28.3891 37.2287 28.6108 38.0366 28.2491 38.6721Z" fill="#FF8A2F" />
  <path fill-rule="evenodd" clip-rule="evenodd" d="M28.2491 38.6721C27.8875 39.3071 27.0796 39.5287 26.4446 39.1671L21.2011 36.1822C20.5656 35.8206 20.3439 35.0127 20.7056 34.3777C21.0672 33.7422 21.8751 33.5205 22.5107 33.8822L27.7542 36.867C28.3891 37.2287 28.6108 38.0366 28.2491 38.6721Z" fill="#313131" />
  <path fill-rule="evenodd" clip-rule="evenodd" d="M49.2551 32.5508C49.0737 31.8425 49.5008 31.1217 50.209 30.9403L56.0532 29.4421C56.7614 29.2607 57.4823 29.6878 57.6643 30.3961C57.8457 31.1037 57.4186 31.8251 56.7104 32.0065L50.8662 33.5041C50.1579 33.6855 49.4371 33.259 49.2551 32.5508Z" fill="#FF8A2F" />
  <path fill-rule="evenodd" clip-rule="evenodd" d="M49.2551 32.5508C49.0737 31.8425 49.5008 31.1217 50.209 30.9403L56.0532 29.4421C56.7614 29.2607 57.4823 29.6878 57.6643 30.3961C57.8457 31.1037 57.4186 31.8251 56.7104 32.0065L50.8662 33.5041C50.1579 33.6855 49.4371 33.259 49.2551 32.5508Z" fill="#313131" />
  <path fill-rule="evenodd" clip-rule="evenodd" d="M30.7501 47.3767C30.9435 48.0814 30.529 48.81 29.8238 49.0034L24.0054 50.6001C23.3008 50.7935 22.5727 50.379 22.3793 49.6738C22.1859 48.9692 22.6004 48.2405 23.305 48.0477L29.1234 46.4505C29.8286 46.2576 30.5566 46.6715 30.7501 47.3767Z" fill="#FF8A2F" />
  <path fill-rule="evenodd" clip-rule="evenodd" d="M30.7501 47.3767C30.9435 48.0814 30.529 48.81 29.8238 49.0034L24.0054 50.6001C23.3008 50.7935 22.5727 50.379 22.3793 49.6738C22.1859 48.9692 22.6004 48.2405 23.305 48.0477L29.1234 46.4505C29.8286 46.2576 30.5566 46.6715 30.7501 47.3767Z" fill="#313131" />
  <path fill-rule="evenodd" clip-rule="evenodd" d="M47.4549 49.2535C48.1631 49.0721 48.8839 49.4992 49.0653 50.2074L50.5629 56.0516C50.7449 56.7599 50.3178 57.4807 49.6096 57.6627C48.9013 57.8441 48.1805 57.417 47.9991 56.7088L46.5009 50.8646C46.3195 50.1564 46.7466 49.4355 47.4549 49.2535Z" fill="#FF8A2F" />
  <path fill-rule="evenodd" clip-rule="evenodd" d="M47.4549 49.2535C48.1631 49.0721 48.8839 49.4992 49.0653 50.2074L50.5629 56.0516C50.7449 56.7599 50.3178 57.4807 49.6096 57.6627C48.9013 57.8441 48.1805 57.417 47.9991 56.7088L46.5009 50.8646C46.3195 50.1564 46.7466 49.4355 47.4549 49.2535Z" fill="#313131" />
  <path fill-rule="evenodd" clip-rule="evenodd" d="M32.6351 30.7489C31.9305 30.9423 31.2019 30.5278 31.0084 29.8226L29.4118 24.0042C29.2184 23.2996 29.6328 22.5715 30.3375 22.3775C31.0427 22.1847 31.7707 22.5992 31.9642 23.3038L33.5614 29.1222C33.7548 29.8274 33.3398 30.5554 32.6351 30.7489Z" fill="#FF8A2F" />
  <path fill-rule="evenodd" clip-rule="evenodd" d="M32.6351 30.7489C31.9305 30.9423 31.2019 30.5278 31.0084 29.8226L29.4118 24.0042C29.2184 23.2996 29.6328 22.5715 30.3375 22.3775C31.0427 22.1847 31.7707 22.5992 31.9642 23.3038L33.5614 29.1222C33.7548 29.8274 33.3398 30.5554 32.6351 30.7489Z" fill="#313131" />
  <mask id="mask0" mask-type="alpha" maskUnits="userSpaceOnUse" x="20" y="40" width="9" height="5">
    <path fill-rule="evenodd" clip-rule="evenodd" d="M20 40.9857H28.6204V44.4859H20V40.9857Z" fill="white" />
    <path fill-rule="evenodd" clip-rule="evenodd" d="M20 40.9857H28.6204V44.4859H20V40.9857Z" stroke="white" />
  </mask>
  <g mask="url(#mask0)">
    <path fill-rule="evenodd" clip-rule="evenodd" d="M28.6076 43.3487C28.5043 44.0725 27.8339 44.5753 27.11 44.472L21.1373 43.619C20.4134 43.5157 19.9106 42.8453 20.0139 42.122C20.1173 41.3982 20.7876 40.8954 21.5115 40.9987L27.4843 41.8517C28.2081 41.955 28.7109 42.6254 28.6076 43.3487Z" fill="#FF8A2F" />
    <path fill-rule="evenodd" clip-rule="evenodd" d="M28.6076 43.3487C28.5043 44.0725 27.8339 44.5753 27.11 44.472L21.1373 43.619C20.4134 43.5157 19.9106 42.8453 20.0139 42.122C20.1173 41.3982 20.7876 40.8954 21.5115 40.9987L27.4843 41.8517C28.2081 41.955 28.7109 42.6254 28.6076 43.3487Z" fill="#313131" />
  </g>
  <mask id="mask1" mask-type="alpha" maskUnits="userSpaceOnUse" x="51" y="35" width="10" height="4">
    <path fill-rule="evenodd" clip-rule="evenodd" d="M51.3667 35.5754H60.0005V38.9739H51.3667V35.5754Z" fill="white" />
    <path fill-rule="evenodd" clip-rule="evenodd" d="M51.3667 35.5754H60.0005V38.9739H51.3667V35.5754Z" stroke="white" />
  </mask>
  <g mask="url(#mask1)">
    <path fill-rule="evenodd" clip-rule="evenodd" d="M51.3771 36.7343C51.4678 36.0087 52.1298 35.4951 52.8554 35.5858L58.842 36.3373C59.567 36.428 60.0812 37.0899 59.9905 37.815C59.8992 38.5406 59.2372 39.0542 58.5122 38.9635L52.5256 38.2121C51.8 38.1213 51.2864 37.4594 51.3771 36.7343Z" fill="#FF8A2F" />
    <path fill-rule="evenodd" clip-rule="evenodd" d="M51.3771 36.7343C51.4678 36.0087 52.1298 35.4951 52.8554 35.5858L58.842 36.3373C59.567 36.428 60.0812 37.0899 59.9905 37.815C59.8992 38.5406 59.2372 39.0542 58.5122 38.9635L52.5256 38.2121C51.8 38.1213 51.2864 37.4594 51.3771 36.7343Z" fill="#313131" />
  </g>
  <mask id="mask2" mask-type="alpha" maskUnits="userSpaceOnUse" x="35" y="20" width="5" height="9">
    <path fill-rule="evenodd" clip-rule="evenodd" d="M35.5205 20.0001H39.0207V28.6204H35.5205V20.0001Z" fill="white" />
    <path fill-rule="evenodd" clip-rule="evenodd" d="M35.5205 20.0001H39.0207V28.6204H35.5205V20.0001Z" stroke="white" />
  </mask>
  <g mask="url(#mask2)">
    <path fill-rule="evenodd" clip-rule="evenodd" d="M36.6573 28.607C35.9334 28.5037 35.4306 27.8333 35.534 27.1095L36.387 21.1367C36.4903 20.4129 37.1607 19.9101 37.8839 20.0134C38.6077 20.1167 39.1105 20.7871 39.0072 21.511L38.1548 27.4837C38.0515 28.207 37.3811 28.7104 36.6573 28.607Z" fill="#FF8A2F" />
    <path fill-rule="evenodd" clip-rule="evenodd" d="M36.6573 28.607C35.9334 28.5037 35.4306 27.8333 35.534 27.1095L36.387 21.1367C36.4903 20.4129 37.1607 19.9101 37.8839 20.0134C38.6077 20.1167 39.1105 20.7871 39.0072 21.511L38.1548 27.4837C38.0515 28.207 37.3811 28.7104 36.6573 28.607Z" fill="#313131" />
  </g>
  <path fill-rule="evenodd" clip-rule="evenodd" d="M43.2712 51.3768C43.9962 51.4675 44.5104 52.1295 44.4191 52.8546L43.6676 58.8417C43.5769 59.5668 42.915 60.081 42.1899 59.9897C41.4649 59.899 40.9507 59.237 41.0414 58.512L41.7929 52.5254C41.8836 51.7997 42.5455 51.2861 43.2712 51.3768Z" fill="#FF8A2F" />
  <path fill-rule="evenodd" clip-rule="evenodd" d="M43.2712 51.3768C43.9962 51.4675 44.5104 52.1295 44.4191 52.8546L43.6676 58.8417C43.5769 59.5668 42.915 60.081 42.1899 59.9897C41.4649 59.899 40.9507 59.237 41.0414 58.512L41.7929 52.5254C41.8836 51.7997 42.5455 51.2861 43.2712 51.3768Z" fill="#313131" />
  <path fill-rule="evenodd" clip-rule="evenodd" d="M29.5792 34.3099C28.9947 34.7484 28.1651 34.6301 27.7266 34.0456L24.1056 29.2184C23.6671 28.6339 23.7854 27.8043 24.3705 27.3658C24.955 26.9273 25.7846 27.0457 26.2231 27.6301L29.8435 32.4574C30.282 33.0418 30.1643 33.8714 29.5792 34.3099Z" fill="#FF8A2F" />
  <path fill-rule="evenodd" clip-rule="evenodd" d="M29.5792 34.3099C28.9947 34.7484 28.1651 34.6301 27.7266 34.0456L24.1056 29.2184C23.6671 28.6339 23.7854 27.8043 24.3705 27.3658C24.955 26.9273 25.7846 27.0457 26.2231 27.6301L29.8435 32.4574C30.282 33.0418 30.1643 33.8714 29.5792 34.3099Z" fill="#313131" />
  <path fill-rule="evenodd" clip-rule="evenodd" d="M50.3583 45.7333C50.9356 45.2846 51.767 45.3891 52.2157 45.9664L55.9178 50.7305C56.3659 51.3078 56.2614 52.1392 55.6841 52.5879C55.1069 53.036 54.2755 52.9315 53.8274 52.3542L50.1253 47.5901C49.6765 47.0128 49.7811 46.1814 50.3583 45.7333Z" fill="#FF8A2F" />
  <path fill-rule="evenodd" clip-rule="evenodd" d="M50.3583 45.7333C50.9356 45.2846 51.767 45.3891 52.2157 45.9664L55.9178 50.7305C56.3659 51.3078 56.2614 52.1392 55.6841 52.5879C55.1069 53.036 54.2755 52.9315 53.8274 52.3542L50.1253 47.5901C49.6765 47.0128 49.7811 46.1814 50.3583 45.7333Z" fill="#313131" />
  <path fill-rule="evenodd" clip-rule="evenodd" d="M45.6972 29.5799C45.2587 28.9949 45.377 28.1659 45.9615 27.7274L50.7881 24.1064C51.3726 23.6678 52.2022 23.7862 52.6413 24.3713C53.0798 24.9557 52.9615 25.7853 52.3764 26.2238L47.5497 29.8442C46.9647 30.2828 46.1351 30.1644 45.6972 29.5799Z" fill="#FF8A2F" />
  <path fill-rule="evenodd" clip-rule="evenodd" d="M45.6972 29.5799C45.2587 28.9949 45.377 28.1659 45.9615 27.7274L50.7881 24.1064C51.3726 23.6678 52.2022 23.7862 52.6413 24.3713C53.0798 24.9557 52.9615 25.7853 52.3764 26.2238L47.5497 29.8442C46.9647 30.2828 46.1351 30.1644 45.6972 29.5799Z" fill="#313131" />
  <path fill-rule="evenodd" clip-rule="evenodd" d="M34.2777 50.3568C34.7264 50.9341 34.6219 51.7655 34.0446 52.2142L29.2799 55.9157C28.7032 56.3644 27.8712 56.2599 27.4231 55.6827C26.9744 55.1054 27.0789 54.274 27.6562 53.8253L32.4203 50.1238C32.9976 49.675 33.829 49.7796 34.2777 50.3568Z" fill="#FF8A2F" />
  <path fill-rule="evenodd" clip-rule="evenodd" d="M34.2777 50.3568C34.7264 50.9341 34.6219 51.7655 34.0446 52.2142L29.2799 55.9157C28.7032 56.3644 27.8712 56.2599 27.4231 55.6827C26.9744 55.1054 27.0789 54.274 27.6562 53.8253L32.4203 50.1238C32.9976 49.675 33.829 49.7796 34.2777 50.3568Z" fill="#313131" />
</svg>