<svg width="80" height="80" viewBox="0 0 80 80" fill="none" xmlns="http://www.w3.org/2000/svg">
<path d="M40 80C62.0914 80 80 62.0914 80 40C80 17.9086 62.0914 0 40 0C17.9086 0 0 17.9086 0 40C0 62.0914 17.9086 80 40 80Z" fill="#E4E4E4"/>
<circle cx="40" cy="40" r="10" stroke="#3A3A3A" stroke-width="2"/>
<path d="M30.1007 30.1006L24.4438 24.4437" stroke="#3A3A3A" stroke-width="2" stroke-linecap="round"/>
<path d="M24.4437 31.5148V24.4437H31.5148" stroke="#3A3A3A" stroke-width="2" stroke-linecap="round"/>
<path d="M49.8993 49.8994L55.5562 55.5563" stroke="#3A3A3A" stroke-width="2" stroke-linecap="round"/>
<path d="M55.5563 48.4852L55.5563 55.5563L48.4852 55.5563" stroke="#3A3A3A" stroke-width="2" stroke-linecap="round"/>
<path d="M30.1002 49.8994L24.4434 55.5563" stroke="#3A3A3A" stroke-width="2" stroke-linecap="round"/>
<path d="M31.5145 55.5563L24.4435 55.5563L24.4435 48.4852" stroke="#3A3A3A" stroke-width="2" stroke-linecap="round"/>
<path d="M49.8998 30.1006L55.5566 24.4437" stroke="#3A3A3A" stroke-width="2" stroke-linecap="round"/>
<path d="M48.4855 24.4437L55.5565 24.4437L55.5565 31.5148" stroke="#3A3A3A" stroke-width="2" stroke-linecap="round"/>
</svg>
