<svg width="327" height="327" viewBox="0 0 327 327" fill="none" xmlns="http://www.w3.org/2000/svg">
<path d="M94.5293 170.138C99.46 164.401 102.779 159.986 104.52 156.893C106.228 153.799 107.098 150.834 107.098 147.998C107.098 143.97 105.712 140.65 102.973 138.072C100.233 135.494 96.7207 134.205 92.4023 134.205C88.0518 134.205 84.5713 135.526 81.9287 138.104C79.2861 140.683 77.9971 144.034 77.9971 148.095V149.062H87.4395V148.224C87.4395 146.677 87.8906 145.42 88.8252 144.453C89.7598 143.486 91.0166 143.003 92.5635 143.003C94.0459 143.003 95.2383 143.486 96.1729 144.421C97.1074 145.355 97.5908 146.58 97.5908 148.095C97.5908 149.706 97.1074 151.414 96.1406 153.187C95.1738 154.991 93.3691 157.569 90.6621 160.953C87.9551 164.369 83.4434 169.687 77.1592 176.938V179H107.936V170.138H94.5293ZM113.027 135.107V143.551H131.977L117.926 179H127.69L144.448 136.364V135.107H113.027ZM165.653 179.806C171.1 179.806 175.418 177.775 178.641 173.683C181.831 169.59 183.442 164.047 183.442 157.021C183.442 149.996 181.831 144.453 178.673 140.393C175.482 136.332 171.132 134.27 165.653 134.27C160.143 134.27 155.792 136.332 152.634 140.393C149.443 144.453 147.864 149.996 147.864 157.021C147.864 164.047 149.443 169.59 152.666 173.683C155.856 177.775 160.175 179.806 165.653 179.806ZM165.653 171.008C162.946 171.008 160.916 169.815 159.498 167.398C158.08 165.014 157.371 161.533 157.371 157.021C157.371 152.51 158.08 149.062 159.498 146.677C160.916 144.292 162.946 143.067 165.653 143.067C168.296 143.067 170.326 144.292 171.776 146.709C173.194 149.126 173.936 152.574 173.936 157.086C173.936 161.598 173.227 165.046 171.809 167.431C170.391 169.815 168.328 171.008 165.653 171.008ZM228.817 179.999C234.521 179.999 239.452 178.259 243.577 174.746C247.702 171.266 250.28 166.657 251.344 160.921H241.257C240.419 163.886 238.872 166.206 236.681 167.914C234.457 169.622 231.847 170.46 228.817 170.46C224.886 170.46 221.631 169.106 219.021 166.335C216.378 163.563 215.089 160.115 215.089 155.958C215.089 151.801 216.378 148.32 219.021 145.549C221.631 142.777 224.886 141.359 228.817 141.359C231.718 141.359 234.231 142.165 236.423 143.744C238.614 145.323 240.193 147.482 241.16 150.222H251.183C250.087 144.743 247.509 140.328 243.384 136.912C239.259 133.528 234.425 131.82 228.817 131.82C225.466 131.82 222.34 132.465 219.375 133.689C216.41 134.914 213.896 136.59 211.802 138.717C209.675 140.844 208.031 143.422 206.807 146.387C205.582 149.384 204.97 152.574 204.97 155.958C204.97 159.31 205.582 162.5 206.807 165.465C208.031 168.43 209.675 170.976 211.802 173.103C213.896 175.229 216.41 176.938 219.375 178.162C222.34 179.387 225.466 179.999 228.817 179.999Z" fill="#50AF6F"/>
<g filter="url(#filter0_d)">
<circle cx="163.5" cy="159.5" r="132" stroke="url(#paint0_linear)" stroke-width="11"/>
</g>
<circle cx="163.5" cy="159.5" r="116" stroke="url(#paint1_linear)"/>
<circle cx="248.5" cy="126.5" r="3.5" stroke="url(#paint2_linear)" stroke-width="4"/>
<defs>
<filter id="filter0_d" x="0" y="0" width="327" height="327" filterUnits="userSpaceOnUse" color-interpolation-filters="sRGB">
<feFlood flood-opacity="0" result="BackgroundImageFix"/>
<feColorMatrix in="SourceAlpha" type="matrix" values="0 0 0 0 0 0 0 0 0 0 0 0 0 0 0 0 0 0 127 0" result="hardAlpha"/>
<feMorphology radius="10" operator="dilate" in="SourceAlpha" result="effect1_dropShadow"/>
<feOffset dy="4"/>
<feGaussianBlur stdDeviation="8"/>
<feColorMatrix type="matrix" values="0 0 0 0 0.313726 0 0 0 0 0.686275 0 0 0 0 0.435294 0 0 0 0.2 0"/>
<feBlend mode="normal" in2="BackgroundImageFix" result="effect1_dropShadow"/>
<feBlend mode="normal" in="SourceGraphic" in2="effect1_dropShadow" result="shape"/>
</filter>
<linearGradient id="paint0_linear" x1="80.1821" y1="63.4033" x2="227.905" y2="278.599" gradientUnits="userSpaceOnUse">
<stop stop-color="#A7C652" stop-opacity="0.7"/>
<stop offset="1" stop-color="#50AF6F"/>
</linearGradient>
<linearGradient id="paint1_linear" x1="102" y1="72.5" x2="207.5" y2="258" gradientUnits="userSpaceOnUse">
<stop stop-color="#50AF6F" stop-opacity="0.7"/>
<stop offset="0.963441" stop-color="#50AF6F"/>
</linearGradient>
<linearGradient id="paint2_linear" x1="245.597" y1="122.393" x2="250.577" y2="131.15" gradientUnits="userSpaceOnUse">
<stop stop-color="#50AF6F"/>
<stop offset="0.963441" stop-color="#50AF6F"/>
</linearGradient>
</defs>
</svg>
