<svg fill="none" height="42" viewBox="0 0 57 42" width="57" xmlns="http://www.w3.org/2000/svg" xmlns:xlink="http://www.w3.org/1999/xlink"><linearGradient id="a" gradientUnits="userSpaceOnUse" x1="35.6743" x2="49.5508" y1="32.2519" y2="17.2764"><stop offset="0" stop-color="#e23826"/><stop offset="1" stop-color="#f2a31c"/></linearGradient><clipPath id="b"><path d="m0 0h57v42h-57z"/></clipPath><mask id="c" height="16" maskUnits="userSpaceOnUse" width="17" x="35" y="16"><path d="m35.736 23.7955c0 4.2818 3.4772 7.7522 7.7666 7.7522 4.2893 0 7.7673-3.4704 7.7673-7.7522 0-4.2803-3.478-7.7507-7.7673-7.7507-4.2894 0-7.7666 3.4704-7.7666 7.7507z" fill="#fff"/></mask><g clip-path="url(#b)"><g mask="url(#c)"><path clip-rule="evenodd" d="m35.736 23.7955c0 4.2818 3.4772 7.7522 7.7666 7.7522 4.2893 0 7.7673-3.4704 7.7673-7.7522 0-4.2803-3.478-7.7507-7.7673-7.7507-4.2894 0-7.7666 3.4704-7.7666 7.7507z" fill="url(#a)" fill-rule="evenodd"/></g><path clip-rule="evenodd" d="m43.5955 33.9489c-5.5853 0-10.1306-4.5408-10.1306-10.13 0-5.587 4.5453-10.132 10.1306-10.132 5.5874 0 10.1314 4.545 10.1314 10.132 0 5.5892-4.544 10.13-10.1314 10.13zm0-17.6598c-4.1515 0-7.53 3.378-7.53 7.5298 0 4.1512 3.3785 7.5292 7.53 7.5292 4.1522 0 7.53-3.378 7.53-7.5292 0-4.1518-3.3778-7.5298-7.53-7.5298zm-13.3511 15.5841v-30.47329c0-.77275-.6298-1.39991-1.411-1.39991-.7777 0-1.4069.62716-1.4069 1.39991v30.47329c0 .7762.6292 1.4048 1.4069 1.4048.7812 0 1.411-.6286 1.411-1.4048zm-6.7092-8.08c0-5.5733-4.5441-10.1063-10.1317-10.1063-5.58552 0-10.13031 4.5337-10.13031 10.1077 0 5.5739 4.54479 10.1041 10.13031 10.1041 2.9904 0 5.6731-1.3052 7.5288-3.3648v1.3591c0 4.1415-3.3786 7.5119-7.5295 7.5119-.7198 0-1.3007.5809-1.3007 1.2969 0 .7179.5809 1.2982 1.3007 1.2982 5.5876 0 10.1324-4.5337 10.1324-10.107zm-10.1317 7.5105c-4.15095 0-7.52888-3.369-7.52888-7.5091 0-4.1415 3.37793-7.5113 7.52888-7.5113 4.1523 0 7.5302 3.3698 7.5302 7.5113 0 4.1401-3.3779 7.5091-7.5302 7.5091zm39.6086-17.6168c-.0956 0-.1773-.0824-.1773-.1811v-1.0827l-.4501.7537c-.0694.1269-.2487.1353-.3235-.0021l-.4495-.7516v1.0827c0 .0987-.0817.1811-.1766.1811-.1004 0-.1787-.0789-.1787-.1811v-1.6562c0-.1021.079-.1755.1884-.1755.1115 0 .1579.06.1987.1276l.577.9701.5825-.9701c.0408-.0676.0872-.1276.1987-.1276.1095 0 .1884.0734.1884.1755v1.6562c0 .1022-.0775.1811-.178.1811zm-2.6436 0c-.0991 0-.178-.0789-.178-.1811v-1.4702h-.455c-.0907 0-.1684-.0804-.1684-.1705 0-.0986.0735-.1755.1684-.1755h1.2681c.0956 0 .1676.0755.1676.1755 0 .0958-.0741.1705-.1676.1705h-.4516v1.4702c0 .1008-.0824.1811-.1835.1811z" fill-rule="evenodd"/></g></svg>