<svg xmlns="http://www.w3.org/2000/svg" xmlns:xlink="http://www.w3.org/1999/xlink" fill="none" height="36" viewBox="0 0 40 36" width="40">
  <linearGradient id="a" gradientUnits="userSpaceOnUse" x1="16.8798" x2="22.3962" y1="17.8214" y2="11.868">
    <stop offset="0" stop-color="#e23826" />
    <stop offset="1" stop-color="#f2a31c" />
  </linearGradient>
  <g clip-rule="evenodd" fill-rule="evenodd">
    <path d="m12.9771 35.389c.1715.2017.3443.405.5184.611.0305-.0341.0585-.0647.0846-.0932.0503-.0551.0936-.1025.134-.1521.4407-.5428.8842-1.0835 1.3277-1.6242 1.0219-1.246 2.0439-2.492 3.0323-3.7632 2.0386-2.6218 3.929-5.3459 5.605-8.209 1.0003-1.7088 1.9133-3.4593 2.5838-5.3226.3727-1.0354.6777-2.0903.7256-3.1934.0745-1.7269-.2133-3.4038-.8386-5.01815-1.2265-3.16699-3.5101-5.63098-6.3416-7.09982l-.0861-.08963-.126-.01805c-2.4729-1.227733-5.3463-1.705264-8.2908-1.243446-2.75965.433288-5.14886 1.630896-7.15714 3.536186-2.22007 2.10612-3.555186 4.67237-4.008705 7.67411-.14181859.9409-.1949537 1.8884-.0669804 2.837.1762434 1.3079.6046924 2.5449 1.1177054 3.7554.93885 2.2146 2.14599 4.2891 3.44593 6.3128 2.19013 3.4097 4.63547 6.638 7.21849 9.767.3676.4455.7418.8856 1.1224 1.3333z" fill="#e35205" />
    <path d="m16.9043 14.4596c0 1.7022 1.3823 3.0819 3.0875 3.0819s3.0879-1.3797 3.0879-3.0819c0-1.7016-1.3827-3.0812-3.0879-3.0812s-3.0875 1.3796-3.0875 3.0812z" fill="url(#a)" />
    <path d="m20.0298 18.4961c-2.2204 0-4.0274-1.8052-4.0274-4.0271 0-2.2211 1.807-4.0279 4.0274-4.0279 2.2212 0 4.0276 1.8068 4.0276 4.0279 0 2.2219-1.8064 4.0271-4.0276 4.0271zm0-7.0205c-1.6504 0-2.9935 1.3429-2.9935 2.9934 0 1.6503 1.3431 2.9932 2.9935 2.9932 1.6506 0 2.9935-1.3429 2.9935-2.9932 0-1.6505-1.3429-2.9934-2.9935-2.9934zm-5.3076 6.1953v-12.11438c0-.3072-.2504-.55652-.561-.55652-.3091 0-.5593.24932-.5593.55652v12.11438c0 .3086.2502.5585.5593.5585.3106 0 .561-.2499.561-.5585zm-2.6672-3.2121c0-2.2156-1.8065-4.0177-4.02779-4.0177-2.22047 0-4.02721 1.8023-4.02721 4.0182s1.80674 4.0168 4.02721 4.0168c1.18881 0 2.25529-.5188 2.99299-1.3376v.5403c0 1.6464-1.34311 2.9863-2.99326 2.9863-.28615 0-.51709.2309-.51709.5155 0 .2854.23094.5161.51709.5161 2.22126 0 4.02806-1.8023 4.02806-4.0179zm-4.02779 2.9857c-1.65017 0-2.99303-1.3393-2.99303-2.9852 0-1.6464 1.34286-2.986 2.99303-2.986 1.65071 0 2.99359 1.3396 2.99359 2.986 0 1.6459-1.34288 2.9852-2.99359 2.9852z" fill="#fff" />
  </g>
  <g clip-rule="evenodd" fill-rule="evenodd">
  		<circle cx="32" cy="8" r="7.5" fill="#10C684" stroke="#9A9A9A" style="display: block;" />
  		<path d="M31.3691 3.42871L29.6094 6.28648L30.9028 6.93933L32.073 4.85759L33.1288 6.6437L34.5366 6.28648L32.7768 3.42871H31.3691Z" fill="white" />
  		<path d="M32.4453 7.00048L34.9089 5.64551L34.4162 7.30843L32.4453 7.00048Z" fill="white" />
  		<path d="M36.835 10.0952L35.2399 7.14241L34.0279 7.93608L35.2456 9.99038L33.1709 10.0117L32.7764 11.4095L36.1311 11.3144L36.835 10.0952Z" fill="white" />
  		<path d="M33.2094 9.23755L33.151 12.0486L31.9572 10.7904L33.2094 9.23755Z" fill="white" />
  		<path d="M28.0498 11.4282L31.4046 11.5233L31.3233 10.0767L28.9353 10.1042L29.9542 8.29675L28.941 7.2562L27.346 10.209L28.0498 11.4282Z" fill="white" />
  		<path d="M30.607 8.71216L28.2018 7.25612L29.8883 6.85136L30.607 8.71216Z" fill="white" />
  	</g>
</svg>