<svg width="40" height="49" viewBox="0 0 40 49" fill="none" xmlns="http://www.w3.org/2000/svg">
<path d="M35.5 21.8646C35.5 24.3413 34.4243 27.2492 32.7506 30.2568C31.0832 33.253 28.8534 36.2936 26.6135 39.0221C24.3752 41.7487 22.1354 44.1529 20.4546 45.8761C19.6144 46.7374 18.9146 47.4278 18.4253 47.9025C18.258 48.0648 18.1152 48.2019 18 48.3119C17.8848 48.2019 17.742 48.0648 17.5747 47.9025C17.0854 47.4278 16.3856 46.7374 15.5454 45.8761C13.8646 44.1529 11.6248 41.7487 9.38646 39.0221C7.14657 36.2936 4.91683 33.253 3.2494 30.2568C1.57565 27.2492 0.5 24.3413 0.5 21.8646C0.5 11.6998 8.35686 3.5 18 3.5C27.6431 3.5 35.5 11.6998 35.5 21.8646Z" fill="#4D4D4D" stroke="#9A9A9A"/>
<path d="M8.82854 20.9608C9.10708 20.9608 9.33287 20.735 9.33287 20.4565C9.33287 20.1779 9.10708 19.9521 8.82854 19.9521C8.55001 19.9521 8.32422 20.1779 8.32422 20.4565C8.32422 20.735 8.55001 20.9608 8.82854 20.9608Z" fill="#DD4927"/>
<path d="M8.82854 22.7684C9.10708 22.7684 9.33287 22.5426 9.33287 22.2641C9.33287 21.9856 9.10708 21.7598 8.82854 21.7598C8.55001 21.7598 8.32422 21.9856 8.32422 22.2641C8.32422 22.5426 8.55001 22.7684 8.82854 22.7684Z" fill="#DD4927"/>
<path d="M5.23238 23.5392C4.80897 23.5392 4.42735 23.4448 4.08551 23.256C3.74368 23.0679 3.47803 22.8063 3.28655 22.4726C3.09574 22.1395 3 21.768 3 21.3608C3 20.7337 3.21171 20.2139 3.63445 19.8013C4.05787 19.388 4.59051 19.1816 5.23238 19.1816C5.86953 19.1816 6.39948 19.388 6.8229 19.8006C7.24564 20.2132 7.45735 20.733 7.45735 21.3601C7.45735 21.9817 7.24429 22.5002 6.81885 22.9162C6.39341 23.3315 5.86414 23.5392 5.23238 23.5392ZM5.23238 22.4921C5.55332 22.4921 5.81627 22.3863 6.01989 22.1746C6.22351 21.9628 6.32599 21.6918 6.32599 21.3601C6.32599 21.0284 6.22418 20.7573 6.01989 20.5456C5.81627 20.3339 5.55197 20.228 5.22834 20.228C4.90471 20.228 4.64108 20.3339 4.43679 20.5456C4.23317 20.7573 4.13069 21.0284 4.13069 21.3601C4.13069 21.5233 4.15766 21.6763 4.21092 21.8186C4.26419 21.9615 4.3397 22.0808 4.43612 22.1779C4.5332 22.275 4.64917 22.3512 4.78402 22.4072C4.92021 22.4638 5.06922 22.4921 5.23238 22.4921Z" fill="white"/>
<path d="M11.9464 23.5392C11.6053 23.5392 11.3032 23.4779 11.0402 23.3558C10.7773 23.2338 10.5737 23.0605 10.4287 22.836C10.2838 22.6115 10.2109 22.3546 10.2109 22.064H11.2965C11.3012 22.186 11.3335 22.2899 11.3922 22.3735C11.4509 22.4577 11.5311 22.5191 11.6329 22.5568C11.7347 22.5953 11.852 22.6142 11.9848 22.6142C12.092 22.6142 12.1885 22.5987 12.2754 22.5683C12.3624 22.538 12.4332 22.4908 12.4898 22.4267C12.5458 22.3633 12.5741 22.2878 12.5741 22.2015C12.5741 22.0741 12.508 21.9797 12.3752 21.9184C12.2424 21.857 12.0442 21.8037 11.7792 21.7579C11.6113 21.7323 11.4718 21.7066 11.3625 21.6817C11.2526 21.6561 11.1232 21.6116 10.9728 21.5475C10.8225 21.4841 10.7025 21.4113 10.6135 21.3297C10.5245 21.2482 10.4462 21.1362 10.3802 20.9933C10.3141 20.8504 10.2811 20.6852 10.2811 20.4964C10.2811 20.1094 10.4341 19.7932 10.7395 19.5484C11.0443 19.3037 11.4455 19.1816 11.9424 19.1816C12.4393 19.1816 12.8391 19.3077 13.1425 19.5599C13.4459 19.812 13.5976 20.1451 13.5976 20.5577H12.535C12.535 20.2314 12.3287 20.0683 11.9154 20.0683C11.7421 20.0683 11.6073 20.104 11.5102 20.1755C11.4131 20.2469 11.3652 20.3433 11.3652 20.4661C11.3652 20.5173 11.3794 20.5645 11.407 20.6076C11.4347 20.6508 11.4684 20.6852 11.5061 20.7108C11.5446 20.7364 11.6039 20.7607 11.6855 20.7836C11.7671 20.8065 11.8358 20.8234 11.8918 20.8335C11.9478 20.8436 12.032 20.8591 12.144 20.8794C12.2411 20.8996 12.3098 20.9137 12.3503 20.9212C12.3907 20.9286 12.4595 20.9427 12.5566 20.963C12.653 20.9832 12.7258 21.0027 12.7744 21.0203C12.8229 21.0385 12.889 21.0621 12.9733 21.0931C13.0575 21.1234 13.1209 21.1558 13.1648 21.1888C13.2079 21.2219 13.2612 21.2616 13.3252 21.3075C13.3886 21.3533 13.4385 21.4046 13.4742 21.4605C13.51 21.5165 13.5457 21.5779 13.5814 21.6439C13.6172 21.71 13.6414 21.7869 13.6542 21.8732C13.6671 21.9602 13.6731 22.0518 13.6731 22.1483C13.6731 22.5717 13.5154 22.9088 13.1991 23.161C12.8843 23.4131 12.4662 23.5392 11.9464 23.5392Z" fill="white"/>
<path d="M16.5529 19.1816C17.1745 19.1816 17.691 19.388 18.1009 19.8006C18.5108 20.2132 18.7165 20.733 18.7165 21.3601C18.7165 21.9871 18.5102 22.5083 18.0975 22.9236C17.6849 23.339 17.1698 23.5466 16.5529 23.5466C16.1294 23.5466 15.7498 23.432 15.4134 23.2028V24.9153H14.2969V19.2963H15.0385L15.23 19.6711C15.5975 19.3448 16.0384 19.1816 16.5529 19.1816ZM15.6548 22.1712C15.8665 22.3849 16.1335 22.4921 16.4578 22.4921C16.7814 22.4921 17.0504 22.3849 17.2642 22.1712C17.4779 21.9575 17.5851 21.6871 17.5851 21.3608C17.5851 21.147 17.5366 20.9528 17.4401 20.7796C17.3431 20.6063 17.2096 20.4714 17.039 20.3744C16.8684 20.2773 16.6756 20.2287 16.4618 20.2287C16.2481 20.2287 16.0539 20.2773 15.8806 20.3744C15.7074 20.4714 15.5732 20.6063 15.4795 20.7796C15.3851 20.9528 15.3379 21.1464 15.3379 21.3608C15.3372 21.6864 15.4431 21.9568 15.6548 22.1712Z" fill="white"/>
<path d="M22.7756 19.2888H23.6089V23.4172H22.7297L22.638 23.0504C22.2604 23.3767 21.8148 23.5399 21.3003 23.5399C20.6787 23.5399 20.1622 23.3322 19.7523 22.9169C19.3417 22.5016 19.1367 21.9804 19.1367 21.3533C19.1367 20.7317 19.3417 20.2146 19.7523 19.8013C20.1616 19.388 20.678 19.1816 21.2997 19.1816C21.8249 19.1816 22.2759 19.3495 22.6528 19.686L22.7756 19.2888ZM20.585 22.1631C20.7967 22.3775 21.0637 22.484 21.388 22.484C21.7116 22.484 21.9806 22.3768 22.1944 22.1631C22.4088 21.9494 22.5153 21.679 22.5153 21.3527C22.5153 21.0263 22.4081 20.7566 22.1944 20.5422C21.9806 20.3285 21.713 20.2213 21.3914 20.2213C21.1776 20.2213 20.9848 20.2712 20.8142 20.3703C20.6436 20.4694 20.5095 20.6049 20.413 20.7755C20.316 20.9468 20.2674 21.1389 20.2674 21.3527C20.2674 21.679 20.3733 21.9494 20.585 22.1631Z" fill="white"/>
<path d="M26.21 23.5392C25.8021 23.5392 25.4312 23.4435 25.0975 23.2527C24.7637 23.0612 24.5015 22.7975 24.31 22.4611C24.1185 22.1247 24.0234 21.7525 24.0234 21.3453C24.0234 20.7283 24.2325 20.2139 24.6505 19.8006C25.0685 19.388 25.591 19.1816 26.2181 19.1816C26.7534 19.1816 27.2119 19.336 27.5942 19.6442C27.9765 19.953 28.2185 20.3615 28.3203 20.8713H27.2119C27.1202 20.6724 26.9867 20.5159 26.8107 20.4007C26.6347 20.286 26.4345 20.2287 26.2106 20.2287C25.9099 20.2287 25.6591 20.3359 25.4575 20.5497C25.2559 20.7634 25.1555 21.0311 25.1555 21.352C25.1555 21.6729 25.2573 21.9433 25.4616 22.1624C25.6652 22.3815 25.9153 22.4914 26.2106 22.4914C26.4352 22.4914 26.6334 22.4314 26.8067 22.3121C26.9799 22.1921 27.1148 22.0202 27.2119 21.7963H28.3358C28.234 22.3215 27.9893 22.7429 27.6016 23.0618C27.2146 23.3801 26.7507 23.5392 26.21 23.5392Z" fill="white"/>
<path d="M32.9998 21.3453C32.9998 21.4525 32.9924 21.5617 32.9769 21.6736H29.8579C29.9038 21.9541 30.0143 22.1692 30.1903 22.3195C30.3663 22.4699 30.5915 22.5447 30.8673 22.5447C31.056 22.5447 31.2266 22.5029 31.3797 22.4186C31.5327 22.3344 31.6521 22.2184 31.739 22.0707H32.9162C32.7632 22.5191 32.5036 22.8758 32.1362 23.1407C31.7694 23.4057 31.346 23.5385 30.8673 23.5385C30.2557 23.5385 29.746 23.3295 29.3381 22.9115C28.9302 22.4935 28.7266 21.9763 28.7266 21.3594C28.7266 21.1147 28.7609 20.8807 28.8297 20.6562C28.8985 20.4323 28.9976 20.2307 29.1277 20.0521C29.2579 19.8734 29.4096 19.7197 29.5828 19.5896C29.7561 19.4594 29.9523 19.359 30.1714 19.2875C30.3899 19.2174 30.6218 19.1816 30.8666 19.1816C31.2792 19.1816 31.65 19.2787 31.9791 19.4722C32.3081 19.6657 32.5602 19.9287 32.7362 20.2597C32.9115 20.5908 32.9998 20.9528 32.9998 21.3453ZM30.8666 20.1296C30.6164 20.1296 30.4068 20.1984 30.2355 20.3359C30.0649 20.4735 29.9489 20.665 29.8876 20.9097H31.8833C31.8321 20.7411 31.7586 20.6002 31.6615 20.4856C31.5644 20.371 31.4484 20.2827 31.3136 20.222C31.1787 20.16 31.0297 20.1296 30.8666 20.1296Z" fill="white"/>
<circle cx="32" cy="8" r="7.5" fill="#10C684" stroke="#9A9A9A"/>
<path d="M31.3691 3.42871L29.6094 6.28648L30.9028 6.93933L32.073 4.85759L33.1288 6.6437L34.5366 6.28648L32.7768 3.42871H31.3691Z" fill="white"/>
<path d="M32.4453 7.00048L34.9089 5.64551L34.4162 7.30843L32.4453 7.00048Z" fill="white"/>
<path d="M36.835 10.0952L35.2399 7.14241L34.0279 7.93608L35.2456 9.99038L33.1709 10.0117L32.7764 11.4095L36.1311 11.3144L36.835 10.0952Z" fill="white"/>
<path d="M33.2094 9.23755L33.151 12.0486L31.9572 10.7904L33.2094 9.23755Z" fill="white"/>
<path d="M28.0498 11.4282L31.4046 11.5233L31.3233 10.0767L28.9353 10.1042L29.9542 8.29675L28.941 7.2562L27.346 10.209L28.0498 11.4282Z" fill="white"/>
<path d="M30.607 8.71216L28.2018 7.25612L29.8883 6.85136L30.607 8.71216Z" fill="white"/>
</svg>
