<svg fill="none" height="41" viewBox="0 0 41 41" width="41" xmlns="http://www.w3.org/2000/svg"><g clip-rule="evenodd" fill="#6a6a6a" fill-rule="evenodd"><path d="m35.5333 2.18667h-30.06663c-1.8115 0-3.28 1.4685-3.28 3.28v30.06663c0 1.8115 1.4685 3.28 3.28 3.28h30.06663c1.8115 0 3.28-1.4685 3.28-3.28v-30.06663c0-1.8115-1.4685-3.28-3.28-3.28zm-30.06663-2.18667c-3.01916 0-5.46667 2.44751-5.46667 5.46667v30.06663c0 3.0192 2.44751 5.4667 5.46667 5.4667h30.06663c3.0192 0 5.4667-2.4475 5.4667-5.4667v-30.06663c0-3.01916-2.4475-5.46667-5.4667-5.46667z"/><path d="m14.9343 7.081c1.4396-.06627 1.8986-.081 5.5657-.081s4.1261.01595 5.5645.081c1.4383.06505 2.4201.29455 3.2792.62714.8996.33995 1.7158.87136 2.3908 1.55863.6872.67378 1.2174 1.48873 1.5561 2.38953.3339.8591.5621 1.8409.6284 3.2768.0663 1.442.081 1.901.081 5.5669 0 3.6671-.016 4.1261-.081 5.5657-.065 1.4359-.2945 2.4177-.6284 3.2768-.3387.9009-.8698 1.7172-1.5561 2.392-.675.6872-1.4912 1.2174-2.3908 1.5561-.8591.3339-1.8409.5621-3.2768.6284-1.4408.0663-1.8998.081-5.5669.081s-4.1261-.016-5.5657-.081c-1.4359-.065-2.4177-.2945-3.2768-.6284-.9009-.3387-1.71717-.8698-2.39195-1.5561-.68681-.6742-1.2183-1.4901-1.55741-2.3908-.33259-.8591-.56087-1.8409-.62714-3.2768-.06627-1.442-.081-1.901-.081-5.5669 0-3.6671.01595-4.1261.081-5.5645.06505-1.4383.29455-2.4201.62714-3.2792.33961-.9007.87151-1.7166 1.55863-2.39075.67382-.68666 1.48923-1.21814 2.38953-1.55741.8591-.33259 1.8409-.56087 3.2768-.62714zm11.0209 2.43c-1.4236-.06505-1.8507-.07854-5.4552-.07854s-4.0316.01349-5.4552.07854c-1.3169.06014-2.0312.27982-2.5073.46514-.6296.24546-1.08.53636-1.5525 1.00886-.4479.4357-.7926.9662-1.00886 1.5525-.18532.4761-.405 1.1904-.46514 2.5073-.06505 1.4236-.07854 1.8507-.07854 5.4552s.01349 4.0316.07854 5.4552c.06014 1.3169.27982 2.0312.46514 2.5073.21596.5855.56086 1.1169 1.00886 1.5525.4356.448.967.7929 1.5525 1.0089.4761.1853 1.1904.405 2.5073.4651 1.4236.065 1.8495.0785 5.4552.0785s4.0316-.0135 5.4552-.0785c1.3169-.0601 2.0312-.2798 2.5073-.4651.6296-.2455 1.08-.5364 1.5525-1.0089.448-.4356.7929-.967 1.0089-1.5525.1853-.4761.405-1.1904.4651-2.5073.065-1.4236.0785-1.8507.0785-5.4552s-.0135-4.0316-.0785-5.4552c-.0601-1.3169-.2798-2.0312-.4651-2.5073-.2455-.6296-.5364-1.08-1.0089-1.5525-.4357-.4479-.9662-.7926-1.5525-1.00886-.4761-.18532-1.1904-.405-2.5073-.46514zm-7.1795 15.1507c.963.4008 2.0353.455 3.0337.153.9985-.3019 1.8611-.941 2.4407-1.8083.5795-.8673.84-1.9089.7369-2.9469-.1031-1.0379-.5634-2.0079-1.3022-2.7443-.471-.4707-1.0405-.8311-1.6675-1.0552-.627-.2242-1.2959-.3066-1.9585-.2412-.6627.0653-1.3026.2768-1.8737.6191-.5711.3424-1.0592.8071-1.4291 1.3607-.37.5537-.6126 1.1824-.7104 1.8411-.0977.6586-.0483 1.3308.1449 1.968.1931.6372.5252 1.2237.9722 1.7172s.9979.8817 1.613 1.1368zm-3.1823-9.0683c.6443-.6444 1.4093-1.1555 2.2511-1.5042.8419-.3487 1.7443-.5282 2.6555-.5282s1.8136.1795 2.6555.5282c.8418.3487 1.6068.8598 2.2511 1.5042.6444.6443 1.1555 1.4093 1.5042 2.2511.3487.8419.5282 1.7443.5282 2.6555s-.1795 1.8136-.5282 2.6555c-.3487.8418-.8598 1.6068-1.5042 2.2511-1.3013 1.3014-3.0663 2.0324-4.9066 2.0324s-3.6053-.731-4.9066-2.0324c-1.3014-1.3013-2.0324-3.0663-2.0324-4.9066s.731-3.6053 2.0324-4.9066zm13.3846-.999c.1597-.1507.2875-.3318.3759-.5327s.1356-.4175.1388-.637-.0376-.4374-.1202-.6408c-.0825-.2034-.205-.3882-.3602-.5434s-.34-.2777-.5434-.3602-.4213-.1234-.6408-.1202-.4361.0504-.637.1388-.382.2162-.5326.3759c-.293.3106-.4534.723-.4471 1.1499.0062.4268.1785.8345.4804 1.1363.3018.3019.7095.4742 1.1363.4805.4269.0062.8394-.1542 1.1499-.4471z"/></g></svg>