<svg fill="none" height="41" viewBox="0 0 41 41" width="41" xmlns="http://www.w3.org/2000/svg"><g fill="#6a6a6a"><path d="m26.2394 14.76c-1.4577.0911.0002-9.29337 1.6401-9.56669 1.6399-.27331 9.0199 2.46002 7.3799 9.29339-1.64 6.8333-14.4867 18.3133-19.9533 21.0466-4.3732 2.1867-8.29104-2.2778-9.29333-4.6467-.02218-1.1113-.10445-1.9452 0-3.8266 2.91559-.82 8.47343 0 8.47343 0-.2733 2.46 1.9133 2.46 2.1867 2.1866.2733-.2733 12.0265-12.0266 12.5732-13.3933.4373-1.0933-1.5489-1.1844-3.0067-1.0933z"/><path clip-rule="evenodd" d="m35.5333 2.18667h-30.06663c-1.8115 0-3.28 1.4685-3.28 3.28v30.06663c0 1.8115 1.4685 3.28 3.28 3.28h30.06663c1.8115 0 3.28-1.4685 3.28-3.28v-30.06663c0-1.8115-1.4685-3.28-3.28-3.28zm-30.06663-2.18667c-3.01916 0-5.46667 2.44751-5.46667 5.46667v30.06663c0 3.0192 2.44751 5.4667 5.46667 5.4667h30.06663c3.0192 0 5.4667-2.4475 5.4667-5.4667v-30.06663c0-3.01916-2.4475-5.46667-5.4667-5.46667z" fill-rule="evenodd"/></g></svg>