<svg fill="none" height="41" viewBox="0 0 41 41" width="41" xmlns="http://www.w3.org/2000/svg"><g clip-rule="evenodd" fill="#6a6a6a" fill-rule="evenodd"><path d="m35.5333 2.18667h-30.06663c-1.8115 0-3.28 1.4685-3.28 3.28v30.06663c0 1.8115 1.4685 3.28 3.28 3.28h30.06663c1.8115 0 3.28-1.4685 3.28-3.28v-30.06663c0-1.8115-1.4685-3.28-3.28-3.28zm-30.06663-2.18667c-3.01916 0-5.46667 2.44751-5.46667 5.46667v30.06663c0 3.0192 2.44751 5.4667 5.46667 5.4667h30.06663c3.0192 0 5.4667-2.4475 5.4667-5.4667v-30.06663c0-3.01916-2.4475-5.46667-5.4667-5.46667z"/><path d="m34.8 10.084-5.8494 23.8309c-.1877.7646-1.0848 1.102-1.7298.6505l-6.517-4.5619-3.2419 2.8604c-.5859.517-1.5078.2901-1.7869-.4397l-2.8281-7.3968-6.20236-2.9073c-.86195-.4041-.85864-1.6311.00548-2.0305l25.81388-11.93079c1.2778-.59056 2.6716.55815 2.3361 1.92519zm-3.8418 2.3894-3.9691 19.1015-6.0236-4.9761-3.6666 3.1428-.5238-4.4523 10.214-9.4283-12.0473 7.3331-5.7617-2.0951 21.0042-9.2519c.4167-.1835.8666.1805.7739.6263z"/></g></svg>