<svg width="2467" height="1102" viewBox="0 0 2467 1102" fill="none" xmlns="http://www.w3.org/2000/svg">
<g opacity="0.12">
<path d="M156.43 180.621C320.441 139.355 686.195 91.9942 837.116 232.685C1025.77 408.55 1040.34 646.34 1360.36 520.285C1680.39 394.23 1909.69 327.538 2028.09 447.708C2146.5 567.879 2315.85 767.598 2424.39 690.927" stroke="#E6F0FF" stroke-width="4"/>
<path d="M127.9 227.887C291.912 186.62 657.665 139.26 808.586 279.951C997.237 455.815 1011.81 693.605 1331.83 567.551C1651.86 441.496 1881.16 374.803 1999.56 494.974C2117.97 615.145 2287.32 814.864 2395.86 738.192" stroke="#E6F0FF" stroke-width="4"/>
<path d="M87.4141 279.345C251.426 238.078 617.179 190.718 768.1 331.409C956.751 507.273 971.326 745.063 1291.35 619.009C1611.37 492.954 1840.67 426.261 1959.08 546.432C2077.48 666.603 2246.84 866.322 2355.38 789.65" stroke="#E6F0FF" stroke-width="4"/>
<path d="M103.727 335.323C267.738 294.057 633.492 246.696 784.412 387.388C973.063 563.252 987.639 801.042 1307.66 674.987C1627.68 548.932 1856.99 482.24 1975.39 602.41C2093.79 722.581 2263.15 922.301 2371.69 845.629" stroke="#E6F0FF" stroke-width="4"/>
<path d="M112.175 389.533C276.186 348.267 641.94 300.906 792.861 441.598C981.512 617.462 996.087 855.252 1316.11 729.197C1636.13 603.142 1865.43 536.45 1983.84 656.62C2102.24 776.791 2271.6 976.51 2380.14 899.839" stroke="#E6F0FF" stroke-width="4"/>
<path d="M33.082 450.557C197.094 409.29 562.847 361.93 713.768 502.621C902.419 678.485 916.994 916.275 1237.02 790.22C1557.04 664.166 1786.34 597.473 1904.74 717.644C2023.15 837.814 2192.51 1037.53 2301.05 960.862" stroke="#E6F0FF" stroke-width="4"/>
</g>
</svg>
