<svg width="2663" height="1696" viewBox="0 0 2663 1696" fill="none" xmlns="http://www.w3.org/2000/svg">
<g opacity="0.12">
<path d="M2466.98 768.905C2319.24 686.595 1978.21 546.185 1796.02 643.021C1568.28 764.066 1492.65 989.981 1216.16 785.394C939.669 580.806 735.441 457.038 589.969 542.469C444.498 627.9 229.219 776.981 144.221 674.83" stroke="#E6F0FF" stroke-width="4"/>
<path d="M2482.31 821.944C2334.57 739.634 1993.53 599.224 1811.34 696.06C1583.6 817.105 1507.98 1043.02 1231.49 838.433C954.993 633.845 750.765 510.078 605.293 595.508C459.822 680.939 244.543 830.02 159.546 727.869" stroke="#E6F0FF" stroke-width="4"/>
<path d="M2508.1 882.128C2360.35 799.818 2019.32 659.407 1837.13 756.243C1609.39 877.289 1533.77 1103.2 1257.27 898.616C980.781 694.029 776.553 570.261 631.081 655.692C485.61 741.123 270.331 890.204 185.334 788.052" stroke="#E6F0FF" stroke-width="4"/>
<path d="M2477.85 931.977C2330.11 849.667 1989.08 709.257 1806.88 806.093C1579.14 927.138 1503.52 1153.05 1227.03 948.466C950.536 743.879 746.308 620.111 600.836 705.542C455.365 790.972 240.086 940.053 155.089 837.902" stroke="#E6F0FF" stroke-width="4"/>
<path d="M2455.66 982.153C2307.92 899.843 1966.88 759.433 1784.69 856.269C1556.95 977.314 1481.33 1203.23 1204.84 998.642C928.344 794.054 724.117 670.286 578.645 755.717C433.173 841.148 217.895 990.229 132.897 888.078" stroke="#E6F0FF" stroke-width="4"/>
<path d="M2516.26 1061.57C2368.52 979.257 2027.49 838.847 1845.3 935.683C1617.56 1056.73 1541.93 1282.64 1265.44 1078.06C988.949 873.468 784.721 749.701 639.249 835.131C493.778 920.562 278.499 1069.64 193.502 967.492" stroke="#E6F0FF" stroke-width="4"/>
</g>
</svg>
